<svg width="678" height="993" viewBox="0 0 678 993" fill="none" xmlns="http://www.w3.org/2000/svg">
<path d="M1497.09 756.506L1779.58 763.163L1501.45 769.738L1407.35 951.29C1406.37 953.204 1404.85 954.815 1402.96 955.941C1401.62 956.752 1400.12 957.302 1398.56 957.56C1397 957.818 1395.4 957.778 1393.85 957.443C1392.3 957.108 1390.84 956.484 1389.55 955.608C1388.25 954.731 1387.15 953.618 1386.31 952.334L1385.96 951.851L1095.06 510.841C1089.51 502.432 1076.65 502.611 1071.36 511.171L903.944 782.005C900.844 787.006 896.459 791.163 891.209 794.082C885.958 797.001 880.016 798.585 873.946 798.683H872.525L625.429 802.172L547.736 803.252H526.965L482.408 803.288H300.596C298.039 803.288 295.586 804.26 293.776 805.991C291.966 807.721 290.946 810.069 290.941 812.519V812.635C290.942 825.341 296.21 837.527 305.586 846.513C314.961 855.499 327.677 860.551 340.938 860.557H556.291C561.152 860.557 565.946 861.64 570.295 863.721C574.644 865.802 578.428 868.823 581.348 872.547L1196.13 1656.17C1295.16 1788.72 1500.84 1788.72 1599.87 1656.17L2749.17 191.235C2807.97 112.529 2808.02 18.4423 2768.11 -55.9631C2725.64 -135.136 2640.2 -185.103 2547.3 -185.103H1463.65C1442.23 -185.103 1410.42 -134.554 1398 -134.554C1385.57 -134.554 1356.62 -185.103 1335.24 -185.103H248.705C46.645 -185.103 -70.7776 33.8183 46.8345 191.235L464.585 723.716L832.079 727.168C838.436 727.229 844.707 725.762 850.321 722.903C855.934 720.044 860.711 715.884 864.215 710.801L1058.97 428.394L1059.81 427.191C1062.16 423.843 1065.28 421.059 1068.93 419.054C1075.16 415.692 1082.52 414.833 1089.41 416.667C1096.29 418.501 1102.14 422.878 1105.66 428.837L1388.33 908.079C1389.14 909.451 1390.31 910.592 1391.74 911.385C1393.16 912.178 1394.77 912.594 1396.42 912.591C1398.06 912.587 1399.68 912.164 1401.1 911.366C1402.51 910.567 1403.68 909.421 1404.49 908.046L1490.95 760.035L1491.12 759.754C1491.71 758.74 1492.58 757.901 1493.63 757.328C1494.68 756.755 1495.88 756.471 1497.09 756.506Z" fill="#5998A4" fill-opacity="0.55"/>
</svg>
