<svg width="903" height="1637" viewBox="0 0 903 1637" fill="none" xmlns="http://www.w3.org/2000/svg">
<path d="M-144.579 794.262L83.2521 799.877L-141.07 805.423L-216.959 958.564C-217.75 960.179 -218.978 961.538 -220.502 962.488C-221.583 963.172 -222.788 963.636 -224.048 963.854C-225.308 964.071 -226.599 964.037 -227.846 963.755C-229.093 963.472 -230.272 962.946 -231.316 962.207C-232.36 961.467 -233.249 960.529 -233.931 959.445L-234.209 959.038L-468.826 587.039C-473.298 579.946 -483.671 580.097 -487.937 587.318L-622.96 815.77C-625.461 819.988 -628.997 823.495 -633.232 825.957C-637.466 828.42 -642.259 829.756 -647.154 829.838H-648.3L-847.585 832.781L-910.245 833.692H-926.998L-962.933 833.723H-1109.57C-1111.63 833.723 -1113.61 834.543 -1115.07 836.003C-1116.53 837.462 -1117.35 839.443 -1117.35 841.509V841.607C-1117.35 852.325 -1113.1 862.604 -1105.54 870.184C-1097.98 877.764 -1087.73 882.025 -1077.03 882.03H-903.346C-899.426 882.03 -895.559 882.943 -892.051 884.699C-888.544 886.454 -885.492 889.003 -883.137 892.143L-387.308 1553.14C-307.44 1664.95 -141.557 1664.95 -61.6879 1553.14L865.231 317.447C912.657 251.057 912.694 171.693 880.504 108.931C846.254 42.1479 777.348 0 702.421 0H-171.555C-188.824 0 -214.479 42.6384 -224.501 42.6384C-234.523 42.6384 -257.872 0 -275.114 0H-1151.42C-1314.38 0 -1409.08 184.663 -1314.23 317.447L-977.308 766.602L-680.921 769.515C-675.794 769.565 -670.735 768.329 -666.208 765.917C-661.681 763.505 -657.828 759.996 -655.002 755.709L-497.929 517.494L-497.253 516.479C-495.36 513.655 -492.843 511.306 -489.897 509.615C-484.875 506.779 -478.936 506.055 -473.382 507.602C-467.828 509.149 -463.113 512.841 -460.272 517.867L-232.299 922.116C-231.646 923.273 -230.698 924.235 -229.551 924.904C-228.405 925.573 -227.101 925.924 -225.775 925.921C-224.448 925.918 -223.146 925.562 -222.003 924.888C-220.859 924.214 -219.915 923.248 -219.267 922.088L-149.535 797.238L-149.399 797.001C-148.923 796.146 -148.222 795.438 -147.372 794.955C-146.522 794.471 -145.556 794.232 -144.579 794.262Z" fill="#5998A4" fill-opacity="0.15"/>
</svg>
