<svg width="572" height="218" viewBox="0 0 572 218" fill="none" xmlns="http://www.w3.org/2000/svg">
<g clip-path="url(#clip0_270_776)">
<path d="M139.773 105.617L109.375 106.364L139.305 107.101L149.431 127.465C149.536 127.68 149.7 127.861 149.904 127.986C150.048 128.078 150.209 128.139 150.377 128.168C150.545 128.197 150.717 128.193 150.884 128.156C151.05 128.118 151.207 128.048 151.347 127.95C151.486 127.851 151.604 127.726 151.695 127.582L151.731 127.528L183.035 78.0618C183.172 77.8458 183.362 77.6684 183.587 77.5466C183.812 77.4249 184.064 77.3629 184.32 77.3665C184.576 77.3702 184.827 77.4394 185.048 77.5675C185.27 77.6955 185.454 77.8783 185.585 78.0981L203.6 108.477C203.934 109.038 204.406 109.504 204.971 109.831C205.536 110.159 206.175 110.336 206.828 110.347H206.982L233.572 110.739L241.932 110.86H244.169L248.964 110.864H268.532C268.807 110.864 269.071 110.973 269.265 111.167C269.46 111.361 269.57 111.624 269.571 111.899V111.913C269.571 113.338 269.004 114.706 267.995 115.714C266.985 116.722 265.616 117.288 264.189 117.288H241.016C240.493 117.288 239.977 117.41 239.509 117.643C239.041 117.876 238.634 118.215 238.32 118.633L172.163 206.529C161.507 221.399 139.374 221.399 128.717 206.529L5.03929 42.2123C-1.28831 33.3844 -1.2932 22.8292 3.00163 14.485C5.2496 10.1252 8.6557 6.46749 12.8468 3.91253C17.0378 1.35757 21.8522 0.00396006 26.7623 0L143.371 0C145.677 0 149.098 5.66959 150.435 5.66959C151.772 5.66959 154.889 0 157.191 0H274.112C295.852 0 308.492 24.5557 295.835 42.2123L250.881 101.939L211.335 102.326C210.651 102.333 209.976 102.168 209.372 101.848C208.768 101.527 208.254 101.06 207.877 100.49L186.92 68.8136L186.83 68.6788C186.578 68.3036 186.243 67.9914 185.851 67.7663C185.181 67.3892 184.389 67.2928 183.648 67.4984C182.907 67.704 182.277 68.1948 181.898 68.8631L151.481 122.62C151.395 122.774 151.268 122.902 151.115 122.991C150.963 123.08 150.789 123.127 150.612 123.127C150.435 123.127 150.261 123.08 150.108 122.991C149.956 122.902 149.829 122.774 149.742 122.62L140.435 106.013L140.417 105.981C140.353 105.867 140.26 105.773 140.146 105.709C140.033 105.645 139.904 105.613 139.773 105.617Z" fill="#5998A4"/>
<path d="M344.319 127.031H368.855V130.585H340.088V80.9884H344.319V127.031Z" fill="#5998A4"/>
<path d="M451.901 130.585H447.707V80.9884H451.901V130.585Z" fill="#5998A4"/>
<path d="M550.236 124.453L550.51 125.509L550.816 124.453L566.443 80.9884H571.05L552.556 130.585H548.531L530.037 80.9884H534.609L550.236 124.453Z" fill="#5998A4"/>
<path d="M341.545 177.493H340.088V160.265H341.545V177.493Z" fill="#5998A4"/>
<path d="M361.072 164.691L361.12 166.881C361.602 166.092 362.202 165.49 362.921 165.076C363.645 164.66 364.467 164.446 365.302 164.455C366.676 164.455 367.699 164.841 368.371 165.614C369.042 166.387 369.382 167.547 369.389 169.093V177.494H367.979V169.081C367.972 167.938 367.729 167.086 367.251 166.525C366.773 165.965 366.009 165.686 364.959 165.687C364.11 165.677 363.285 165.969 362.63 166.51C361.955 167.058 361.456 167.797 361.132 168.728V177.496H359.72V164.691H361.072Z" fill="#5998A4"/>
<path d="M388.231 164.691L388.278 166.881C388.76 166.092 389.36 165.49 390.079 165.076C390.803 164.66 391.626 164.446 392.461 164.455C393.835 164.455 394.858 164.841 395.529 165.614C396.2 166.387 396.54 167.547 396.548 169.093V177.494H395.138V169.081C395.13 167.938 394.887 167.086 394.41 166.525C393.932 165.965 393.168 165.686 392.117 165.687C391.268 165.677 390.443 165.969 389.789 166.51C389.114 167.058 388.614 167.797 388.29 168.728V177.496H386.88V164.691H388.231Z" fill="#5998A4"/>
<path d="M413.257 170.905C413.257 169.674 413.496 168.566 413.974 167.579C414.452 166.593 415.128 165.825 416.001 165.276C416.874 164.728 417.863 164.454 418.969 164.453C420.675 164.453 422.057 165.051 423.115 166.246C424.174 167.441 424.703 169.024 424.703 170.993V171.289C424.703 172.527 424.464 173.641 423.986 174.631C423.508 175.621 422.835 176.385 421.966 176.921C421.097 177.457 420.106 177.725 418.992 177.725C417.295 177.725 415.915 177.128 414.852 175.933C413.79 174.737 413.258 173.155 413.258 171.185L413.257 170.905ZM414.679 171.295C414.679 172.825 415.075 174.082 415.867 175.065C416.659 176.048 417.7 176.539 418.989 176.538C420.269 176.538 421.306 176.047 422.099 175.065C422.892 174.083 423.288 172.787 423.287 171.178V170.905C423.298 169.981 423.112 169.065 422.742 168.219C422.378 167.406 421.869 166.778 421.214 166.334C420.55 165.886 419.764 165.653 418.962 165.666C417.699 165.666 416.669 166.161 415.871 167.151C415.072 168.141 414.673 169.436 414.674 171.037L414.679 171.295Z" fill="#5998A4"/>
<path d="M445.273 175.541L449.171 164.691H450.628L445.84 177.493H444.691L439.882 164.691H441.34L445.273 175.541Z" fill="#5998A4"/>
<path d="M474.695 177.493C474.555 177.091 474.464 176.495 474.422 175.706C473.922 176.355 473.269 176.87 472.521 177.203C471.753 177.554 470.918 177.733 470.074 177.73C468.842 177.73 467.845 177.387 467.083 176.701C466.321 176.015 465.94 175.147 465.939 174.097C465.939 172.851 466.459 171.865 467.498 171.139C468.536 170.414 469.984 170.051 471.839 170.051H474.41V168.595C474.41 167.68 474.128 166.96 473.563 166.436C472.998 165.911 472.175 165.649 471.093 165.649C470.106 165.649 469.288 165.902 468.641 166.407C467.993 166.912 467.669 167.519 467.67 168.229L466.248 168.217C466.248 167.199 466.722 166.317 467.67 165.572C468.617 164.827 469.782 164.455 471.165 164.455C472.594 164.455 473.722 164.812 474.547 165.526C475.373 166.24 475.798 167.236 475.821 168.514V174.572C475.821 175.81 475.951 176.737 476.212 177.353V177.492L474.695 177.493ZM470.24 176.476C471.188 176.476 472.035 176.247 472.782 175.79C473.501 175.361 474.07 174.72 474.41 173.956V171.139H471.875C470.461 171.155 469.356 171.413 468.558 171.914C467.76 172.415 467.361 173.102 467.361 173.976C467.354 174.315 467.422 174.65 467.56 174.959C467.699 175.268 467.904 175.543 468.161 175.763C468.694 176.238 469.387 176.476 470.24 176.476Z" fill="#5998A4"/>
<path d="M495.633 161.41V164.691H498.29V165.851H495.633V174.391C495.633 175.103 495.762 175.632 496.018 175.979C496.275 176.325 496.704 176.499 497.304 176.5C497.689 176.486 498.073 176.446 498.453 176.382L498.512 177.531C498.139 177.664 497.634 177.73 496.996 177.73C496.024 177.73 495.317 177.448 494.875 176.884C494.433 176.32 494.212 175.49 494.213 174.395V165.85H491.855V164.691H494.213V161.41H495.633Z" fill="#5998A4"/>
<path d="M514.974 160.991C514.968 160.74 515.062 160.497 515.235 160.315C515.408 160.128 515.645 160.035 515.945 160.035C516.245 160.035 516.484 160.128 516.662 160.315C516.749 160.404 516.818 160.51 516.863 160.626C516.909 160.742 516.931 160.866 516.928 160.991C516.932 161.115 516.91 161.238 516.864 161.353C516.818 161.469 516.749 161.573 516.662 161.661C516.485 161.841 516.246 161.931 515.945 161.931C515.644 161.931 515.408 161.841 515.235 161.661C515.149 161.572 515.082 161.467 515.037 161.352C514.992 161.237 514.971 161.114 514.974 160.991ZM516.644 177.491H515.223V164.691H516.644V177.491Z" fill="#5998A4"/>
<path d="M533.542 170.905C533.542 169.674 533.78 168.566 534.258 167.579C534.736 166.593 535.411 165.825 536.285 165.276C537.158 164.728 538.147 164.454 539.253 164.453C540.959 164.453 542.341 165.051 543.399 166.246C544.458 167.441 544.987 169.024 544.987 170.993V171.289C544.987 172.527 544.748 173.641 544.27 174.631C543.793 175.621 543.119 176.385 542.25 176.921C541.381 177.457 540.39 177.725 539.276 177.725C537.579 177.725 536.198 177.128 535.135 175.933C534.072 174.737 533.541 173.155 533.542 171.185L533.542 170.905ZM534.963 171.295C534.963 172.825 535.359 174.082 536.152 175.065C536.944 176.048 537.985 176.539 539.274 176.538C540.553 176.538 541.589 176.047 542.383 175.065C543.178 174.083 543.574 172.787 543.572 171.178V170.905C543.583 169.981 543.397 169.066 543.027 168.219C542.664 167.406 542.154 166.778 541.499 166.334C540.835 165.886 540.049 165.653 539.248 165.666C537.984 165.666 536.953 166.161 536.156 167.151C535.359 168.141 534.962 169.435 534.966 171.032L534.963 171.295Z" fill="#5998A4"/>
<path d="M563.093 164.691L563.14 166.881C563.622 166.092 564.222 165.49 564.941 165.076C565.665 164.66 566.487 164.446 567.323 164.455C568.697 164.455 569.72 164.841 570.391 165.614C571.063 166.387 571.402 167.547 571.41 169.093V177.494H570V169.081C569.992 167.938 569.749 167.086 569.271 166.525C568.794 165.965 568.029 165.686 566.979 165.687C566.13 165.677 565.305 165.969 564.651 166.51C563.976 167.058 563.476 167.797 563.152 168.728V177.496H561.742V164.691H563.093Z" fill="#5998A4"/>
</g>
<defs>
<clipPath id="clip0_270_776">
<rect width="571.41" height="217.68" fill="white"/>
</clipPath>
</defs>
</svg>
