<svg width="565" height="1024" viewBox="0 0 565 1024" fill="none" xmlns="http://www.w3.org/2000/svg">
<path d="M-468.643 794.262L-243.843 799.877L-465.18 805.423L-540.06 958.564C-540.841 960.179 -542.052 961.538 -543.556 962.488C-544.622 963.172 -545.811 963.636 -547.055 963.854C-548.298 964.071 -549.571 964.037 -550.802 963.755C-552.032 963.472 -553.196 962.946 -554.226 962.207C-555.256 961.467 -556.133 960.529 -556.806 959.445L-557.081 959.038L-788.576 587.039C-792.989 579.946 -803.224 580.097 -807.433 587.318L-940.659 815.77C-943.127 819.988 -946.616 823.495 -950.794 825.957C-954.973 828.42 -959.702 829.756 -964.532 829.838H-965.662L-1162.3 832.781L-1224.12 833.692H-1240.65L-1276.11 833.723H-1420.79C-1422.83 833.723 -1424.78 834.543 -1426.22 836.003C-1427.66 837.462 -1428.47 839.443 -1428.48 841.509V841.607C-1428.47 852.325 -1424.28 862.604 -1416.82 870.184C-1409.36 877.764 -1399.24 882.025 -1388.69 882.03H-1217.32C-1213.45 882.03 -1209.63 882.943 -1206.17 884.699C-1202.71 886.454 -1199.7 889.003 -1197.37 892.143L-708.143 1553.14C-629.337 1664.95 -465.661 1664.95 -386.854 1553.14L527.732 317.447C574.528 251.057 574.563 171.693 542.802 108.931C509.008 42.1479 441.018 0 367.088 0H-495.26C-512.299 0 -537.612 42.6384 -547.501 42.6384C-557.391 42.6384 -580.429 0 -597.441 0H-1462.09C-1622.88 0 -1716.32 184.663 -1622.73 317.447L-1290.29 766.602L-997.849 769.515C-992.79 769.565 -987.799 768.329 -983.332 765.917C-978.865 763.505 -975.064 759.996 -972.275 755.709L-817.292 517.494L-816.625 516.479C-814.757 513.655 -812.274 511.306 -809.367 509.615C-804.412 506.779 -798.551 506.055 -793.071 507.602C-787.591 509.149 -782.939 512.841 -780.136 517.867L-555.196 922.116C-554.552 923.273 -553.616 924.235 -552.485 924.904C-551.354 925.573 -550.067 925.924 -548.758 925.921C-547.449 925.918 -546.165 925.562 -545.036 924.888C-543.908 924.214 -542.977 923.248 -542.338 922.088L-473.533 797.238L-473.399 797.001C-472.929 796.146 -472.238 795.438 -471.399 794.955C-470.56 794.472 -469.607 794.232 -468.643 794.262Z" fill="#5998A4" fill-opacity="0.65"/>
</svg>
